<svg width="362" height="379" fill="none" xmlns="http://www.w3.org/2000/svg">
  <path opacity=".2" d="M113.3 196.6l179.8 103.8L184.7 363c-3 1.7-7.6 1.8-10.1.4L4.2 265c-2.6-1.5-2.3-4 .6-5.8l108.5-62.7z" fill="#253C77"/>
  <path opacity=".4" d="M174.1 317.4l-121-69.8c-1.3-.7-1-2 .3-2.8l91-52.5c1.4-.8 3.5-1 4.7-.3L270 262c1.2.6 1 1.9-.3 2.7l-91 52.5c-1.4 1-3.5 1-4.7.3z" fill="url(#paint0_linear)"/>
  <path opacity=".4" d="M77.6 217.3c0-5.6-8.1-10.3-18.3-10.3C49.2 207 41 211.5 41 217s8.2 10.3 18.3 10.3c10.2 0 18.4-4.5 18.4-10.1z" fill="#E0EBFB"/>
  <path d="M82.2 186.9l-.5 1.8.5-1.8z" fill="#fff"/>
  <path d="M59.2 178.6c10 0 18.2-4.6 18.2-10.3 0-5.7-8.2-10.4-18.2-10.4-10.1 0-18.3 4.7-18.3 10.4s8.2 10.3 18.3 10.3z" fill="#CAE1FA"/>
  <path d="M77.5 166.9v38.2c0 2.7-1.8 5.4-5.4 7.4a29 29 0 0 1-26 0c-4.4-2.5-6.2-6-5.3-9.2V168c.2 2.6 1.9 3.3 5.4 5.3a29 29 0 0 0 26-.6c3-1.6 4.7-3.7 5.3-5.8z" fill="url(#paint1_linear)"/>
  <path d="M59.3 117c5-19.6 12.2-37 10-50.7-2.8-16.2-8.8-27.7-16.8-21.6-8 6-1.5 19.3-1.9 23.9-.4 4.5-10 4.2-10.2 12.9-.3 8.6 8.8 10.2 8.5 19.3-.4 9-14.6 4.2-15.4 14.1-.8 9.9 19.7 10.7 24 52 0 .1-3.1-30.4 1.8-50z" fill="url(#paint2_linear)"/>
  <path d="M76.4 113.3c-2.6-4.4 6.8-7.4 5-15-2-7.5-9.3.5-17.7 16.9-8.4 16.3-1.4 53.8-1.4 53.8 1.5-29.3 12.5-20.6 16.8-26.5 4.2-5.9-7-8.4-6.7-12.5.3-4.1 10.6-.4 13-8.1 2.2-7.7-6.5-4.3-9-8.6z" fill="url(#paint3_linear)"/>
  <path d="M287.7 133.4L118.8 35.9c-3-1.7-5.5-.6-5.5 2.3v131L293 275.8l.2-133.8c0-3-2.4-6.9-5.5-8.6zM111 173.7L1 235.3c-1.6-1.5-1.2 6.4.8 6.8l170.4 98.4c3 2.6 7.1 1.4 10-.4L293 275.8l-182-102z" fill="#338EDB"/>
  <path d="M290.7 274.2L111 170.4V39.5c0-3 2.4-4 5.5-2.2l168.8 97.4c3.1 1.8 5.5 5.7 5.5 8.6v130.9z" fill="url(#paint4_linear)"/>
  <path d="M284 264.4l-166.5-96V44.6l166.4 96v123.8z" fill="url(#paint5_linear)"/>
  <path d="M201.2 91c-.7-.4-1.2-1.2-1.2-1.8v-.5c0-.6.5-.9 1.2-.5.6.4 1.2 1.2 1.2 1.9v.4c0 .8-.6 1-1.2.5z" fill="#338EDB"/>
  <path d="M111 170.4l179.8 103.8-108.5 62.6c-3 1.7-7.5 1.8-10 .4L1.7 238.9c-2.6-1.5-2.3-4 .7-5.8l108.4-62.7z" fill="url(#paint6_linear)"/>
  <path d="M104.4 196L233 270.6l5.8-3.3L110 192.8l-5.7 3.3zM90.2 204.3l121 69.8 5.7-3.3L96 201l-5.7 3.3zM81.1 209.5l142.4 82 5.7-3.2L87 206.2l-5.8 3.3zM71.8 215L214 297l5.8-3.2-142.4-82.1-5.7 3.2zM62.8 220.1L205 302.3l5.8-3.3-142.4-82.1-5.7 3.2zM241 275.2l5.7 3.3 5.8-3.3-5.8-3.3-5.7 3.3zM220.7 279.5l11.8 6.9 5.7-3.3-11.7-6.8-5.8 3.2z" fill="#5A9CDF" fill-opacity=".5"/>
  <path d="M123.2 99.8l153 88.4c.3.1.6 0 .6-.5v-7.8c0-.5-.3-1-.7-1.1L123.2 90.4c-.3-.2-.6 0-.6.5v7.6c0 .5.1 1.1.6 1.3z" fill="#253C77"/>
  <path d="M50.2 238.3L83 220.5c26.7-15.5 15.4-31 17.2-61.9 1.4-41.6 21.2-51.7 36.5-60.5l127.2 73.4c-15.1 8.8-31.6 17.4-33.6 58.7-2.4 30.9 9.6 46.4-17.1 61.9l-35.5 21-127.5-74.8z" fill="url(#paint7_linear)"/>
  <path d="M130.7 157.8l77.7 45.4M182.2 170l30.3 17.8M164.2 252.8l30.4 17.6M124 136l46.8 27.3" stroke="#ABD0F8" stroke-width="1.2" stroke-miterlimit="10"/>
  <path d="M157 131.9l46.9 27.4" stroke="#ABD0F8" stroke-width="2.4" stroke-miterlimit="10"/>
  <path d="M144.8 181.3l60.8 35.6M141.2 225.2l61 35.6M186.6 222.1l16.8 10M114.9 180.1l59 34.6M149.2 279.3l16.8 9.9M79 233.8l59 34.6" stroke="#ABD0F8" stroke-width="1.2" stroke-miterlimit="10"/>
  <path d="M135.6 262.4a.6.6 0 1 1 .8-.9l-.8 1zm2.1.6l.2.6-.2-.6zm-7-21.2v-.6.6zm-1.6 4.8h-.6.6zm-3.4 1.9h-.6.6zm-6.8-14.2l-.3.5.3-.5zm-3.5-1.3l-.1-.6.1.6zm5.7 18l-.1-.6.1.6zm-3.6-3v.6-.6zm-5.4 23.1v.6-.6zm6.8-17.4l.6-.1-.6.1zm-6.2-10l.4-.5-.4.5zm-24-14.6a.6.6 0 0 1 .4-1.1l-.5 1zm47.7 32.4l.9.8.4.1.1 1.2-1.2-.3-1-.9.8-.9zm1.2 1l.1-.6-.1-2.3a47.7 47.7 0 0 0-6.7-17l-.2-.2v-1.2l.9.3.8.8c.4.6 1 1.4 1.5 2.4a53.8 53.8 0 0 1 5 17.3c0 .4 0 .7-.2 1-.2.3-.4.5-.8.6l-.3-1.2zm-6.9-20s0-.1 0 0c-.2.2-.3.5-.4 1-.3.8-.4 2-.6 3.2l-1.2-.2.6-3.4.5-1.2c.2-.3.5-.7 1-.7l.1 1.2zm-5.6 6c-.1-4-.4-6.5-1.2-8.4-.9-2-2.4-3.4-5.3-5.3l.6-1c3 1.9 4.8 3.5 5.8 5.8 1 2.2 1.2 4.9 1.3 8.8l-1.2.1zm-6.5-13.7a10.8 10.8 0 0 0-2.4-1.2h-.6l-.3-1.2h1.2l1 .4 1.8 1-.7 1zm-3-1.2l-.2.1-.1.4.2 2a41.2 41.2 0 0 0 4 9l1.3 2.8a22.4 22.4 0 0 1 1 2.8v.4c-.1.2-.3.4-.6.5l-.2-1.2c-.2 0-.3.2-.4.3v.1l-.1-.4-.8-2-1.4-2.7-1.5-3.2c-1-2.2-2-4.4-2.4-6.2-.3-.8-.4-1.7-.3-2.3 0-.4.1-.7.3-1 .2-.3.5-.5.9-.6l.3 1.2zm5.6 18l-.7-.2a16.4 16.4 0 0 1-1.2-1.5 6 6 0 0 0-1-1l-.8-.3v-1.2c.5 0 1 .3 1.5.6s.8.8 1.2 1.1l.4.6a15.7 15.7 0 0 0 .6.7h-.3l.3 1.2zm-3.7-3c-.3 0-.7.2-1.2.8-.5.6-1 1.4-1.4 2.5a43.2 43.2 0 0 0-3.2 15.5c0 1 0 2 .2 2.5l.2.6v1.2c-.5 0-.8-.2-1-.5l-.4-1c-.2-.7-.3-1.7-.3-2.8a44.4 44.4 0 0 1 5-18.8c.5-.6 1.2-1.2 2-1.2v1.2zm-5.3 22s.2 0 .5-.3l1.2-1a17 17 0 0 0 4.5-15.5l1.1-.2c1.1 4.7-.1 9.3-2 12.6-.8 1.7-1.8 3-2.8 4l-1.3 1.1c-.4.3-1 .5-1.4.4l.2-1.2zm6.1-16.8c-1-4.2-3.7-7.2-6-9.7l.8-.9c2.4 2.6 5.3 5.8 6.4 10.4l-1.2.2zm-6-9.7c-3.2-3.4-10-9.6-23.7-15l.5-1.1a64.9 64.9 0 0 1 24 15.2l-.8.9zm17.4 2.6a85.7 85.7 0 0 1-2 9.8c-.1.2-.3.4-.7.5-.4 0-.6-.3-.7-.4l-.3-.6-.2-.6-.2-2-.5-4.9h1.2l.5 4.8a23.2 23.2 0 0 0 .5 2.6l-.4-.1c-.2 0-.3.2-.2 0l.4-1.2c.4-1.4.8-4 1.4-8l1.2.1z" fill="#80B9F4"/>
  <path d="M114.4 194l88.5 52" stroke="#ABD0F8" stroke-width="1.2" stroke-miterlimit="10"/>
  <path opacity=".4" d="M136.9 98.3L264 171.7l-3 1.9L133.8 100l3-1.8z" fill="#3D7FC2"/>
  <path opacity=".2" d="M235.9 356.6l37.3 21.6c1.7 1 4.2 1 5.6.2l81.9-47.2c1.4-.8 1.2-2.2-.5-3.3L323 306.5c-1.7-1-4.1-1.1-5.6-.3l-81.8 47.2c-1.4.8-1.3 2.3.4 3.2z" fill="#253C77"/>
  <path d="M234.5 341l7.7-1.3 75.1-43.3c1.5-.8 4-.8 5.6.2l34.8 20 4-.6v4c0 .5-.4 1-1 1.3l-81.8 47.2c-1.4.8-4 .8-5.6-.2L236 346.8c-1-.5-1.4-1.3-1.4-2V341z" fill="#338EDB"/>
  <path d="M236 342.8l37.2 21.6c1.7 1 4.2 1 5.6.2l81.9-47.2c1.4-.8 1.2-2.2-.5-3.3L323 292.6c-1.6-.9-4.1-1-5.6-.2l-81.7 47.2c-1.5.8-1.4 2.3.3 3.2z" fill="url(#paint8_linear)"/>
  <path d="M241.5 336.1l43.4 25 74.2-42.6-43.4-25-74.2 42.6z" fill="url(#paint9_linear)"/>
  <path d="M335.3 302.8l5.8 3.3c.2.2.6.2.8 0h.1c.2-.1.2-.3 0-.5l-5.8-3.3a1 1 0 0 0-.9 0c-.3.2-.3.4 0 .5z" fill="#68A1DB"/>
  <path d="M255.2 348.9c-1.7 1-1.8 2.5 0 3.6 1.6.9 4.4.9 6.2 0 1.6-1 1.7-2.6 0-3.6s-4.5-1-6.2 0z" fill="#5A9CDF"/>
  <path d="M278 314.8l67 11.4 13.8-8-10.1-5.8-51.3-8.7-19.3 11.1zM255.7 327.7l67 11.3 4.4-2.5-67-11.3-4.4 2.5zM241.5 335.8l43.3 25 31.6-18.2-67-11.3-7.9 4.5z" fill="#FDFEFF" fill-opacity=".2"/>
  <defs>
    <linearGradient id="paint0_linear" x1="172.5" y1="317.1" x2="262.8" y2="247.7" gradientUnits="userSpaceOnUse">
      <stop stop-color="#2B64A7"/>
      <stop offset=".5" stop-color="#2B64A7" stop-opacity=".3"/>
      <stop offset="1" stop-color="#2B64A7" stop-opacity=".3"/>
    </linearGradient>
    <linearGradient id="paint1_linear" x1="40.6" y1="191.2" x2="77.5" y2="191.2" gradientUnits="userSpaceOnUse">
      <stop stop-color="#E9F2FC"/>
      <stop offset="1" stop-color="#91C2F7"/>
    </linearGradient>
    <linearGradient id="paint2_linear" x1="24.7" y1="75.1" x2="89.3" y2="134" gradientUnits="userSpaceOnUse">
      <stop offset="0" stop-color="#8CCA11"/>
      <stop offset="1" stop-color="#59AB07"/>
    </linearGradient>
    <linearGradient id="paint3_linear" x1="44.6" y1="147.4" x2="81.9" y2="142" gradientUnits="userSpaceOnUse">
      <stop offset="0" stop-color="#4DA806"/>
      <stop offset="1" stop-color="#8CCA11"/>
    </linearGradient>
    <linearGradient id="paint4_linear" x1="265.8" y1="226.5" x2="94.8" y2="85.2" gradientUnits="userSpaceOnUse">
      <stop offset="0" stop-color="#4084C9"/>
      <stop offset="1" stop-color="#A1CFFF"/>
    </linearGradient>
    <linearGradient id="paint5_linear" x1="114.1" y1="82.9" x2="294.8" y2="262" gradientUnits="userSpaceOnUse">
      <stop stop-color="#4C6CC0"/>
      <stop offset="1" stop-color="#253C77"/>
    </linearGradient>
    <linearGradient id="paint6_linear" x1="-61.5" y1="159.1" x2="189.5" y2="276.3" gradientUnits="userSpaceOnUse">
      <stop offset="0" stop-color="#D7EBFF"/>
      <stop offset="1" stop-color="#88C0FA"/>
    </linearGradient>
    <linearGradient id="paint7_linear" x1="127.2" y1="298.2" x2="208" y2="126.5" gradientUnits="userSpaceOnUse">
      <stop offset=".2" stop-color="#FBFBFB"/>
      <stop offset=".3" stop-color="#E6EEFB"/>
      <stop offset=".6" stop-color="#F7F7F7"/>
      <stop offset=".8" stop-color="#fff"/>
      <stop offset="1" stop-color="#D9EDFF"/>
    </linearGradient>
    <linearGradient id="paint8_linear" x1="234.6" y1="344.9" x2="346.4" y2="300" gradientUnits="userSpaceOnUse">
      <stop stop-color="#75B3F3"/>
      <stop offset="1" stop-color="#97C5F3"/>
    </linearGradient>
    <linearGradient id="paint9_linear" x1="342.4" y1="270.8" x2="213.4" y2="412.9" gradientUnits="userSpaceOnUse">
      <stop stop-color="#EDF6FF"/>
      <stop offset="1" stop-color="#EDF6FF" stop-opacity="0"/>
    </linearGradient>
  </defs>
</svg>
